<?xml version="1.0" standalone="no"?><!DOCTYPE svg PUBLIC "-//W3C//DTD SVG 1.1//EN" "http://www.w3.org/Graphics/SVG/1.1/DTD/svg11.dtd"><svg t="1560848808888" class="icon" style="" viewBox="0 0 1024 1024" version="1.1" xmlns="http://www.w3.org/2000/svg" p-id="19032" xmlns:xlink="http://www.w3.org/1999/xlink" width="48" height="48"><defs><style type="text/css"></style></defs><path d="M507.712 157.696m-93.696 0a1.464 1.464 0 1 0 187.392 0 1.464 1.464 0 1 0-187.392 0Z" p-id="19033" fill="#1296db"></path><path d="M570.624 292.864 448.704 292.864c-41.152 0-78.144 14.976-104.448 38.912l0 172.928 0 46.784 0 21.952 91.648 0 19.712 283.84L567.68 857.28l19.072-283.84 92.992 0L679.744 563.328 679.744 500.224 679.744 336.32C653.248 309.76 614.272 292.864 570.624 292.864z" p-id="19034" fill="#1296db"></path><path d="M654.272 685.376l0 49.408c103.872 15.36 175.232 47.232 175.232 84.032 0 52.032-142.144 94.08-317.44 94.08s-317.504-42.048-317.504-94.08c0-36.928 71.872-68.864 176.448-84.288l0-49.344c-173.632 18.816-298.688 71.488-298.688 133.632C72.192 896.768 269.184 960 512 960c242.816 0 439.744-63.232 439.744-141.12C951.744 756.864 827.264 704.384 654.272 685.376z" p-id="19035" fill="#1296db"></path></svg>