<?xml version="1.0" standalone="no"?><!DOCTYPE svg PUBLIC "-//W3C//DTD SVG 1.1//EN" "http://www.w3.org/Graphics/SVG/1.1/DTD/svg11.dtd"><svg t="1561351680188" class="icon" viewBox="0 0 1024 1024" version="1.1" xmlns="http://www.w3.org/2000/svg" p-id="2129" xmlns:xlink="http://www.w3.org/1999/xlink" width="32" height="32"><defs><style type="text/css"></style></defs><path d="M107.008 107.264h809.856c23.232 0 41.92 18.688 41.92 41.92v330.368c-41.92-32.64-120.96-83.776-181.568-83.776-88.448 0-167.552 204.8-265.28 204.8C437.44 595.84 335.104 512 218.688 526.016c-46.528 9.28-111.68 83.84-153.6 139.648v-516.48c0-23.36 18.688-41.92 41.92-41.92z m195.52 335.104c-37.248 0-69.824-13.952-93.056-37.184s-37.248-60.544-37.248-93.056c0-32.64 14.016-69.76 37.248-93.056a129.984 129.984 0 0 1 93.056-37.184c32.64 0 65.088 13.952 92.992 37.184 23.232 23.232 37.248 60.544 37.248 93.056 0 32.64-14.016 69.824-37.248 93.056-27.904 23.232-60.416 37.184-92.992 37.184zM940.096 46.72H83.84C37.184 46.72 0 83.904 0 130.496v763.264c0 46.592 37.184 83.84 83.776 83.84h856.448c46.592 0 83.776-37.248 83.776-83.84V130.56A83.52 83.52 0 0 0 940.16 46.72z" p-id="2130"></path></svg>