<?xml version="1.0" standalone="no"?><!DOCTYPE svg PUBLIC "-//W3C//DTD SVG 1.1//EN" "http://www.w3.org/Graphics/SVG/1.1/DTD/svg11.dtd"><svg t="1561098032866" class="icon" viewBox="0 0 1024 1024" version="1.1" xmlns="http://www.w3.org/2000/svg" p-id="18084" width="32" height="32" xmlns:xlink="http://www.w3.org/1999/xlink"><defs><style type="text/css"></style></defs><path d="M427.4 516.4h54.2v-54.2h-54.2v54.2z m116.2 77h54.2v-54.2h-54.2v54.2z m-116.2 0h54.2v-54.2h-54.2v54.2z m-93.4 0h54.2v-54.2H334v54.2z m0-77h54.2v-54.2H334v54.2z m209.6 0h54.2v-54.2h-54.2v54.2z m93.4-76.5h54.2v-54.2H637v54.2z m287.8-102.3c-22.6-53.3-54.9-101.3-96-142.4-41.1-41.1-89.1-73.5-142.4-96C631.2 75.8 572.5 64 512 64S392.8 75.8 337.6 99.2c-53.3 22.6-101.3 54.9-142.4 96-41.1 41.1-73.5 89.1-96 142.4C75.8 392.8 64 451.5 64 512s11.8 119.2 35.2 174.4c22.6 53.3 54.9 101.3 96 142.4 41.1 41.1 89.1 73.5 142.4 96C392.8 948.2 451.5 960 512 960s119.2-11.8 174.4-35.2c53.3-22.6 101.3-54.9 142.4-96 41.1-41.1 73.5-89.1 96-142.4C948.2 631.2 960 572.5 960 512s-11.8-119.2-35.2-174.4z m-174.3 421H643.9V643.1h-54.2v115.5H434.3V643.1h-54.2v115.5H273.5V447.4c0-28.7 23.3-51.9 51.9-51.9H483V359c0-27.8 22.5-50.3 50.3-50.3h166.9c27.8 0 50.3 22.5 50.3 50.3v399.6zM637 516.4h54.2v-54.2H637v54.2z m-93.4-76.5h54.2v-54.2h-54.2v54.2zM637 593.4h54.2v-54.2H637v54.2z" p-id="18085" fill="#6b3081"></path></svg>